<svg width="381" height="67" viewBox="0 0 381 67" fill="none" xmlns="http://www.w3.org/2000/svg">
<path fill-rule="evenodd" clip-rule="evenodd" d="M298.5 17.4861C298.5 21.2411 298.441 24.3501 298.369 24.3951C298.296 24.4391 297.94 24.2181 297.577 23.9031C292.946 19.8811 285.658 20.0261 281.443 24.2241C279.476 26.1821 278.498 28.0141 277.332 31.9171C275.785 37.0991 277.206 45.8221 280.289 50.0611C284.337 55.6281 291.622 56.2821 297.374 51.5961C298.491 50.6861 298.5 50.6941 298.5 52.5321V54.0081L301.375 53.9621L304.25 53.9171V32.3331V10.7501L301.375 10.7041L298.5 10.6591V17.4861ZM65.083 11.3491C44.065 12.6171 36.615 39.8681 54.046 51.7241C59.692 55.5631 70.579 56.5851 76.5 53.8301C80.921 51.7731 81.987 51.0101 84.905 47.8141C90.479 41.7081 91.832 31.2901 88.051 23.5831C83.818 14.9541 75.832 10.7001 65.083 11.3491ZM0.374031 33.2081L0.417031 53.9171H5.66703H10.917L11 45.3331L11.083 36.7501H18.833H26.583L26.626 45.3751L26.67 54.0001H32.001H37.333V33.2501V12.5001H32H26.667L26.664 20.2921C26.663 24.5771 26.602 28.1781 26.528 28.2931C26.423 28.4581 24.753 28.4941 18.739 28.4601L11.083 28.4171L11.04 20.4581L10.997 12.5001H5.66403H0.332031L0.374031 33.2081ZM102.429 12.7081C102.395 12.8231 102.161 14.1921 101.908 15.7501C101.655 17.3081 101.353 19.1461 101.236 19.8331C101.12 20.5211 100.911 21.7581 100.772 22.5831C100.634 23.4081 100.249 25.6581 99.918 27.5831C99.586 29.5081 99.249 31.4961 99.169 32.0001C99.089 32.5041 98.865 33.8171 98.672 34.9171C98.479 36.0171 98.215 37.5541 98.086 38.3331C97.53 41.6851 97.27 43.2241 96.576 47.2501C96.45 47.9831 96.235 49.2581 96.098 50.0831C95.962 50.9081 95.772 52.0331 95.676 52.5831C95.58 53.1331 95.501 53.6771 95.501 53.7921C95.5 53.9541 96.674 54.0001 100.815 54.0001H106.131L106.223 53.6251C106.274 53.4191 106.398 52.5751 106.497 51.7501C106.597 50.9251 106.712 50.1371 106.753 50.0001C106.793 49.8621 106.939 48.9251 107.076 47.9171C107.214 46.9081 107.445 45.2961 107.591 44.3331C107.737 43.3711 107.966 41.8331 108.099 40.9171C108.392 38.9011 108.71 36.7311 109.09 34.1671C109.246 33.1121 109.421 31.9181 109.478 31.5131C109.661 30.2291 109.867 30.4001 110.662 32.5001C110.853 33.0041 111.078 33.5671 111.162 33.7501C111.247 33.9331 111.477 34.4961 111.675 35.0001C111.873 35.5041 112.098 36.0671 112.175 36.2501C112.252 36.4331 112.477 36.9961 112.675 37.5001C113.219 38.8881 113.902 40.5931 114.545 42.1671C114.864 42.9461 115.259 43.9581 115.424 44.4171C115.589 44.8751 115.774 45.3251 115.835 45.4171C115.896 45.5081 116.12 46.0711 116.333 46.6671C116.547 47.2621 116.772 47.8251 116.833 47.9171C116.895 48.0081 117.12 48.5711 117.333 49.1671C117.547 49.7621 117.771 50.3251 117.832 50.4171C117.893 50.5081 118.237 51.3521 118.597 52.2921L119.25 54.0001L121.413 53.9581L123.575 53.9171L124.551 51.5831C125.088 50.3001 126.012 48.0871 126.606 46.6671C127.2 45.2461 127.752 43.9331 127.834 43.7501C127.915 43.5671 128.14 43.0421 128.333 42.5831C128.527 42.1251 128.752 41.6001 128.833 41.4171C128.915 41.2331 129.589 39.6211 130.332 37.8331C133.813 29.4541 133.554 29.8991 133.808 31.8591C134.161 34.5681 134.358 36.1051 134.588 37.9171C134.864 40.1031 135.269 43.2561 135.582 45.6671C135.997 48.8641 136.326 51.4081 136.422 52.1671C136.474 52.5791 136.554 53.1601 136.599 53.4581L136.682 54.0001H141.98C144.894 54.0001 147.314 53.9641 147.358 53.9201C147.402 53.8761 147.346 53.2571 147.232 52.5451C147.119 51.8331 146.906 50.4251 146.758 49.4171C146.61 48.4081 146.385 46.9081 146.257 46.0831C146.13 45.2581 145.904 43.7581 145.755 42.7501C145.605 41.7421 145.413 40.5041 145.328 40.0001C145.242 39.4961 145.054 38.2581 144.91 37.2501C144.609 35.1531 144.256 32.7881 143.901 30.5001C143.672 29.0231 143.563 28.3011 142.922 24.0421C142.788 23.1481 142.563 21.5941 142.422 20.5881C142.281 19.5831 142.131 18.6451 142.089 18.5051C142.017 18.2631 141.866 17.2301 141.433 14.0001L141.242 12.5831L135.83 12.5391L130.417 12.4961L130.218 12.9561C130.108 13.2091 129.862 13.8291 129.671 14.3331C129.48 14.8371 129.253 15.4001 129.166 15.5831C129.078 15.7671 128.79 16.4791 128.526 17.1671C128.261 17.8541 127.387 20.0291 126.584 22.0001C125.098 25.6461 124.616 26.8571 124.297 27.7501C124.199 28.0251 124.066 28.3251 124.003 28.4171C123.94 28.5081 123.713 29.0711 123.5 29.6671C123.287 30.2621 123.063 30.8251 123.002 30.9171C122.941 31.0081 122.755 31.4581 122.59 31.9171C121.616 34.6111 121.577 34.6221 120.766 32.4581C120.414 31.5191 119.995 30.4121 119.835 30.0001C119.676 29.5871 119.011 27.8251 118.359 26.0831C117.706 24.3421 117.096 22.7861 117.003 22.6271C116.91 22.4681 116.833 22.2581 116.833 22.1601C116.833 22.0621 116.693 21.6671 116.521 21.2831C116.349 20.8981 115.606 18.9711 114.87 17.0001C114.134 15.0291 113.438 13.2101 113.322 12.9581L113.113 12.5001H107.801C103.696 12.5001 102.476 12.5471 102.429 12.7081ZM154.374 33.2081L154.417 53.9171L166.125 53.9591L177.833 54.0021V49.4181V44.8331H171.497H165.16L165.205 41.2081L165.25 37.5831L171.208 37.5401L177.167 37.4961V33.0001V28.5041L171.208 28.4601L165.25 28.4171L165.205 24.9581L165.16 21.5001H171.497H177.833V17.0001V12.5001H166.083H154.332L154.374 33.2081ZM210.795 17.4581L210.75 21.5831L207.708 21.6291L204.667 21.6741V24.2541V26.8331H207.563C209.746 26.8331 210.504 26.8871 210.64 27.0521C210.765 27.2021 210.836 30.5211 210.869 37.7601C210.922 49.4391 210.872 48.9011 212.108 51.0161C214.499 55.1091 220.926 55.7981 228.667 52.7901C229.912 52.3061 229.875 52.3791 229.566 50.9881C229.415 50.3071 229.203 49.3001 229.095 48.7511C228.875 47.6261 228.673 47.4931 227.798 47.8991C224.053 49.6361 219.256 49.8341 217.903 48.3081C217.222 47.5401 216.85 46.6621 216.677 45.4121C216.471 43.9371 216.435 27.3611 216.636 27.0441C216.734 26.8891 218.07 26.8271 222.008 26.7941L227.25 26.7501V24.2501V21.7501L221.917 21.6671L216.583 21.5831L216.539 17.4581L216.494 13.3331H213.667H210.839L210.795 17.4581ZM251.583 21.1001C250.099 21.3151 249.022 21.6731 247.167 22.5701C236.656 27.6491 236.609 47.8601 247.096 53.0731C254.933 56.9691 264.178 53.8101 267.309 46.1671C267.516 45.6631 267.752 45.1001 267.834 44.9171C269.105 42.0811 269.299 35.7461 268.23 32.0001C266.01 24.2171 259.499 19.9541 251.583 21.1001ZM327.833 21.1041C325.479 21.3991 321.758 22.5921 318.709 24.0291C317.737 24.4871 317.741 24.3921 318.607 26.7361C319.458 29.0361 319.399 28.9771 320.346 28.4941C321.218 28.0481 323.511 27.1941 324.667 26.8841C331.818 24.9641 336 27.2661 336 33.1241V34.4461L333.875 34.6451C332.706 34.7551 331 34.9161 330.083 35.0031C320.736 35.8911 316.583 39.0691 316.583 45.3331C316.583 53.1571 324.121 57.0031 332.167 53.2851C332.908 52.9421 334.394 51.8971 335.306 51.0771C336.337 50.1491 336.407 50.1891 336.556 51.7821C336.612 52.3791 336.749 53.1221 336.862 53.4341L337.067 54.0001H339.969H342.871L342.78 53.5421C342.129 50.2491 342.126 50.2071 342.006 40.0831C341.87 28.6551 341.881 28.7631 340.445 25.8511C338.698 22.3101 333.582 20.3841 327.833 21.1041ZM70.417 22.0991C79.362 24.8481 81.942 35.6181 75.158 41.8981C71.162 45.5971 64.331 45.8811 60.171 42.5191C51.954 35.8811 55.554 23.0671 66 21.7721C67.017 21.6461 69.552 21.8341 70.417 22.0991ZM351.333 21.9271C351.333 22.0711 351.491 22.5771 351.683 23.0521C351.875 23.5281 352.146 24.2171 352.286 24.5831C352.426 24.9501 352.605 25.4001 352.686 25.5831C352.766 25.7671 353.142 26.7421 353.521 27.7501C353.901 28.7581 354.357 29.9581 354.535 30.4171C354.713 30.8751 354.922 31.4381 355.001 31.6671C355.358 32.7121 356.682 36.1131 356.832 36.3731C356.925 36.5321 357 36.7421 357 36.8401C357 36.9381 357.141 37.3331 357.312 37.7171C357.484 38.1021 358.019 39.4671 358.501 40.7501C358.983 42.0331 359.51 43.4211 359.672 43.8331C359.833 44.2461 360.311 45.5071 360.733 46.6371C361.156 47.7661 361.645 49.0411 361.82 49.4701C363.354 53.2181 363.351 53.2031 362.739 54.6041C359.959 60.9651 358.607 61.6871 352.221 60.2161C351.864 60.1341 351.504 60.8621 351.501 61.6731C351.5 61.8141 351.396 62.3391 351.27 62.8401C351.143 63.3401 350.992 64.0211 350.933 64.3511L350.827 64.9521L351.789 65.2371C352.317 65.3941 352.917 65.5901 353.121 65.6721C353.955 66.0101 357.124 66.2251 358.464 66.0351C362.41 65.4771 365.604 61.8291 368.346 54.7501C368.559 54.2001 368.793 53.6791 368.867 53.5921C368.94 53.5051 369 53.3171 369.001 53.1751C369.002 53.0331 369.098 52.7291 369.216 52.5001C369.333 52.2711 369.568 51.7081 369.738 51.2501C370.182 50.0481 371.085 47.6961 371.914 45.5831C373.075 42.6231 373.449 41.6531 373.905 40.4171C374.143 39.7751 374.406 39.1001 374.491 38.9171C374.576 38.7331 374.915 37.8711 375.245 37.0001C375.576 36.1291 376.073 34.8171 376.351 34.0831C376.629 33.3501 376.924 32.6001 377.006 32.4171C377.087 32.2331 377.424 31.3711 377.754 30.5001C378.084 29.6291 378.457 28.6541 378.583 28.3331C378.71 28.0121 379.083 27.0371 379.413 26.1671C379.743 25.2961 380.077 24.4331 380.156 24.2501C381.367 21.4331 381.574 21.6671 377.856 21.6671H374.711L374.346 22.7081C374.146 23.2811 373.878 24.0121 373.752 24.3331C373.626 24.6541 373.176 25.8921 372.752 27.0831C372.328 28.2751 371.544 30.4501 371.009 31.9171C370.475 33.3831 369.66 35.6331 369.199 36.9171C366.633 44.0521 366.335 44.8331 366.18 44.8331C366.02 44.8331 365.74 44.1631 364.786 41.5001C363.386 37.5901 362.3 34.5841 362.167 34.2501C362.093 34.0671 361.643 32.8291 361.167 31.5001C360.69 30.1711 360.235 28.9331 360.156 28.7501C360.076 28.5671 359.829 27.8921 359.606 27.2501C359.383 26.6081 358.925 25.3331 358.588 24.4171C358.252 23.5001 357.934 22.6001 357.881 22.4171C357.67 21.6841 357.591 21.6671 354.396 21.6671C351.729 21.6671 351.333 21.7001 351.333 21.9271ZM255.75 26.3291C265.427 27.8831 265 48.0621 255.262 49.3631C249.261 50.1651 245.295 45.2081 245.551 37.2211C245.8 29.4171 249.614 25.3441 255.75 26.3291ZM293.558 26.6991C295.288 27.4281 297.362 29.2931 298.292 30.9561C298.66 31.6151 298.584 43.5481 298.208 44.1311C294.916 49.2381 289.509 50.8481 286.245 47.6941C281.931 43.5251 281.84 32.3881 286.086 28.1421C287.987 26.2411 291.06 25.6481 293.558 26.6991ZM336 41.6531C336 43.0201 335.941 44.1641 335.868 44.1941C335.796 44.2251 335.514 44.5451 335.243 44.9051C331.757 49.5371 324.335 50.4101 322.775 46.3721C321.438 42.9121 324.526 40.3891 331 39.6511C331.962 39.5411 333.2 39.3991 333.75 39.3341C334.3 39.2701 335.031 39.2061 335.375 39.1921L336 39.1671V41.6531Z" fill="#050504"/>
<path fill-rule="evenodd" clip-rule="evenodd" d="M19.167 14.167V28.333H22.833H26.5V20.333V12.333H32H37.5V33.167V54H32H26.5V45.417V36.833H22.833H19.167V49.75V62.667H94.411H169.656L169.703 58.333L169.75 54H161.958H154.167V33.167V12.333H161.958H169.75L169.704 6.167L169.659 0H94.413H19.167V14.167ZM71.583 11.35C82.829 13.364 89.978 21.523 90.285 32.697C90.601 44.194 83.238 53.226 71.955 55.183C57.742 57.648 45.543 48.951 44.312 35.475C42.924 20.277 56.14 8.585 71.583 11.35ZM113.472 12.792C113.566 13.044 113.804 13.662 114 14.167C114.197 14.671 114.422 15.271 114.5 15.5C114.578 15.729 114.787 16.292 114.965 16.75C115.143 17.208 115.796 18.933 116.415 20.583C117.035 22.233 117.682 23.898 117.854 24.283C118.026 24.667 118.167 25.058 118.167 25.152C118.167 25.302 118.297 25.634 118.859 26.917C118.939 27.1 119.075 27.475 119.161 27.75C119.636 29.269 121.445 33.745 121.574 33.719C121.657 33.702 121.9 33.215 122.114 32.636C122.328 32.057 122.576 31.433 122.666 31.25C122.946 30.677 126.113 22.769 126.536 21.583C126.635 21.308 126.766 21.008 126.829 20.917C126.891 20.825 127.065 20.412 127.214 20C127.558 19.053 127.571 19.019 129.041 15.417L130.266 12.417L135.78 12.373L141.295 12.329L141.479 13.373C141.58 13.947 141.744 14.979 141.843 15.667C141.942 16.354 142.127 17.592 142.253 18.417C142.507 20.07 142.867 22.444 143.25 25C143.387 25.917 143.612 27.417 143.75 28.333C143.887 29.25 144.116 30.769 144.258 31.708C144.399 32.648 144.623 34.129 144.754 35C144.885 35.871 145.108 37.333 145.25 38.25C145.391 39.167 145.61 40.667 145.737 41.583C145.863 42.5 146.045 43.7 146.141 44.25C146.238 44.8 146.438 46.075 146.587 47.083C146.736 48.092 146.961 49.554 147.087 50.333C147.213 51.112 147.366 52.257 147.428 52.877L147.539 54.005L141.979 53.961L136.419 53.917L136.221 52.167C136.112 51.204 135.903 49.479 135.755 48.333C135.505 46.395 135.352 45.216 134.758 40.667C134.632 39.704 134.412 37.979 134.269 36.833C133.417 30.016 133.601 30.49 132.669 32.708C132.274 33.648 131.855 34.642 131.738 34.917C131.62 35.192 131.365 35.792 131.17 36.25C130.975 36.708 130.747 37.233 130.664 37.417C130.582 37.6 130.133 38.688 129.667 39.833C129.201 40.979 128.752 42.067 128.669 42.25C128.586 42.433 127.872 44.121 127.083 46C126.294 47.879 125.582 49.567 125.5 49.75C125.223 50.371 124.721 51.578 124.234 52.791L123.75 53.999H121.383L119.016 54L118.854 53.458C118.702 52.953 117.339 49.494 116.998 48.75C116.913 48.567 116.237 46.879 115.494 45C114.75 43.121 114.076 41.433 113.995 41.25C113.702 40.584 113.297 39.574 113.161 39.167C112.625 37.558 109.852 31.002 109.767 31.14C109.708 31.234 109.546 32.122 109.406 33.114C109.027 35.805 108.7 38.063 108.433 39.833C108.302 40.704 108.075 42.279 107.928 43.333C107.78 44.387 107.627 45.362 107.586 45.5C107.546 45.637 107.438 46.35 107.346 47.083C107.173 48.472 106.57 52.519 106.396 53.458L106.296 54H100.793H95.29L95.393 53.292C95.51 52.495 95.841 50.488 96.226 48.25C96.368 47.425 96.561 46.262 96.656 45.667C96.75 45.071 96.904 44.208 96.997 43.75C97.149 43.005 97.376 41.686 97.842 38.833C98.313 35.961 98.522 34.716 98.839 32.917C99.032 31.817 99.255 30.504 99.333 30C99.412 29.496 99.635 28.183 99.828 27.083C100.021 25.983 100.284 24.446 100.412 23.667C100.54 22.887 100.765 21.575 100.912 20.75C101.059 19.925 101.288 18.575 101.421 17.75C101.848 15.105 101.991 14.271 102.187 13.292L102.379 12.333H107.84H113.301L113.472 12.792ZM165.333 25V28.333H167.542H169.75V25V21.667H167.542H165.333V25ZM65.777 22.014C58.321 22.811 53.647 31.067 56.763 37.938C61.297 47.936 75.925 46.561 78.505 35.894C80.016 29.65 75.438 22.73 69.374 22.089C67.44 21.885 67.058 21.877 65.777 22.014ZM165.333 41.25V44.833H167.542H169.75V41.25V37.667H167.542H165.333V41.25Z" fill="#FBC30C"/>
</svg>
